<svg xmlns="http://www.w3.org/2000/svg" width="128.027" height="128.027" viewBox="0 0 533 533">
  <defs>
    <style>
      .cls-1 {
        fill: #545656;
      }

      .cls-1, .cls-2 {
        fill-rule: evenodd;
      }

      .cls-2 {
        fill: #80868a;
      }
    </style>
  </defs>
  <path id="Color_Fill_2" data-name="Color Fill 2" class="cls-1" d="M253,8C377.937,5.494,465.98,75.707,503,160c8.284,18.861,13.438,39.418,19,61,7.5,29.108,4,72.091,4,107V526H326c-40.226,0-84.222,3.079-117-6C103.754,490.849,39.045,428.258,12,321c-5.179-20.538-3.889-45-4-70H166c0.319-45.126,45.536-85.3,87-90V8ZM357,160c0.53-41.821-20.8-75-45-93-8.7-6.472-17.06-15.935-29-19V159c5.71,1.894,15.637,1,23,1h51ZM166,280H100c-1.8,31.766-22.616,54.257-47,64,5.433,25.188,22.625,46.055,36,64,3.875,5.2,8.37,13.855,14,17,6.486,3.623,14.239,2.984,22,5,35.253,9.158,76.466.623,103-11,15.129-6.627,30.161-16.5,43-26,6.8-5.034,13.167-16.807,22-19,5.281,7.526,18.737,11.116,20,22-11.2,7.22-19.964,19.22-31,27-32.713,23.062-71.925,40.72-127,41v1h2c5.052,4.62,12.207,6.041,19,9,34.623,15.082,68.668,19,120,19l198,1c0.369-56.462-.944-115.163-1-170-0.045-43.753,1.773-88.178-9-121C459.631,128.756,412.038,84.891,344,54v1c7.9,5.356,12.709,14.951,18,23,15.508,23.6,33.049,70.38,25,113H348v1c7.445,5.186,11.634,14.62,16,23,19.988,38.366,12.21,82.136-10,112-19.09,25.669-70.109,49.335-117,34-16.1-5.265-26.659-15.957-40-23,0.121,5.836-.838,8.461-5,10-8.5,8.227-17.543-3.128-17-13,2.388-2.557,2.162-4.6,6-6,1.4-.885,5.608-1.085,7-2C178.4,320.127,167.224,295.41,166,280Zm93-92c-5.255,3.275-13.231,2.558-19,5a80.469,80.469,0,0,0-42,42c-19.036,45.622,12.829,82.984,44,96,10.368,4.329,27.816,8.7,43,5,30.357-7.4,68.012-36.522,62-75-2.245-14.371-1.959-24.06-8-34C323.308,201.181,301.529,187.611,259,188Zm7,49c34.813-1.019,38.138,42.656,11,50-20.253,5.481-38-14.665-31-33,3.113-8.156,10.1-10.7,16-16C264.328,237.805,264.826,237.807,266,237ZM142,335c6.99-.26,11.272.963,13,6,3.1,3.818,1.161,7.539,0,12-10.439,6.529-12.585,4.292-20-3C134.792,340.238,137.555,339.541,142,335Zm29,29c3.5,0.4,4.912,1.257,8,2,2.143,3.614,3.735,5.06,4,11-2.541,3.1-2.646,5.492-7,7-1.549,1.049-4.085,1.031-7,1-1.734-1.833-3.53-2.808-5-5-1.664-2.069-1.91-4.155-2-8,2.388-2.557,2.162-4.6,6-6C168.771,365.318,170.232,364.689,171,364Z"/>
  <path id="Color_Fill_1" data-name="Color Fill 1" class="cls-2" d="M282,46c11.881,1.881,20.823,11.92,29,18,26.45,19.669,46.959,52.5,48,97H282V46Zm57,5c23.254,1.068,54.805,26.706,70,38,34.449,25.6,61.286,63.992,76,109,4.367,13.358,5.844,27.889,9,42q0.5,16,1,32v63h-2c-3.754-5.78-8.613-7.7-15-11-26.558-13.708-50.321,4.2-62,21-15.469,22.247-27.416,69.6-17,107,2.03,7.289,3.95,15.981,7,23l11,20H251l-37-5c-23.785-6.67-44.086-15.292-64-25v-3c56.679,1.289,97.088-17.805,130-41,11.1-7.819,19.875-19.512,31-27v-1c-5.977-2.025-15.351-11.145-19-16h-1c-3.185,8.216-19.644,17.833-27,23-27.859,19.568-77.372,45.89-129,34-12.026-2.77-24.342-1.556-34-7-6.928-3.9-12.333-14.507-17-21-11.8-16.419-30.688-40.309-34-64,23.7-5.392,46.96-35.765,48-64h70c0.733,12.679,6.415,25.988,12,35,3.494,5.637,9.876,9.075,11,17l-10,1c-4.628,7.118-4.956,16.36,7,17,2.557-2.388,4.595-2.162,6-6,1.142-1.69,1.066-4.9,1-8h3c16.848,25.142,75.22,37.458,112,22,44.178-18.567,81.228-72.837,55-133-5.017-11.508-11.089-24.494-21-31v-3h42c0.683-42.021-5.2-77.106-21-103-3.563-5.839-7.809-12.332-12-18C348.88,62.428,340.738,58.718,339,51ZM145,336c-5.012,3.811-8.476,3.329-9,12,2.388,2.557,2.162,4.6,6,6,2.925,2.126,3.528,1.289,8,1,2.77-4.109,4.862-4.635,5-12C151.6,339.72,150.686,337.348,145,336Zm25,30c-3.8,3.819-6.031,3.805-6,12,6.389,6.638,17.62,8.265,17-7l-6-5h-5Z"/>
</svg>
